<svg xmlns="http://www.w3.org/2000/svg" xmlns:xlink="http://www.w3.org/1999/xlink" x="0px" y="0px"
	 viewBox="0 0 280 280" style="enable-background:new 0 0 280 280;" xml:space="preserve">
<style type="text/css">
	.st0{fill:#000;}
	.st1{fill:#FFF;}
</style>
<g id="Layer_1" transform="translate(-167 -214)">
	<g>
		<path class="st0" d="M380.47,378.2c-3.4,40.19-32.18,72.58-72.29,72.58c-40.01,0-68.6-32.49-72.1-72.58H192.1
			c3.5,62.44,54.23,112.14,116.08,112.14c61.86,0,112.58-49.7,116.08-112.14H380.47z"/>
		<polygon class="st1" points="289.52,246.63 308.12,222.79 326.98,247.06 308.26,271"/>
		<g>
			<polygon class="st0" points="236.4,368.2 308.18,275.52 379.96,368.2 424.44,368.2 308.18,218.09 191.93,368.2"/>
		</g>
		<polygon class="st1" points="289.52,246.63 308.12,222.79 326.98,247.06 308.26,271"/>
	</g>
</g>
</svg>
